<svg id="logo" xmlns="http://www.w3.org/2000/svg" viewBox="0 0 237.7 39.83"><defs><style>.b{fill:#231815;}</style></defs><g><path class="b" d="M19.75,1.49C9.46,1.49,1.13,9.83,1.13,20.11s8.34,18.62,18.62,18.62,18.62-8.34,18.62-18.62S30.04,1.49,19.75,1.49Zm0,34.23c-8.62,0-15.61-6.99-15.61-15.61S11.13,4.5,19.75,4.5s15.61,6.99,15.61,15.61-6.99,15.61-15.61,15.61Z"/><path class="b" d="M28.21,20.21c1.83,.56,4.3,1.31,5.39-.15,1.49-2-.58-3.53-1.69-5.7-1.08-2.11-2.7-1.34-3.85-1.08-1.65,.37-3.06,.37-5.62,.34,.36-2.46,1.44-2.99,1.72-4.65,.33-1.94-.67-2.39-2.88-3.29-3.54-1.44-4.31,1.08-6.98,1.28-1.33,.1-.67,.72,.15,1.49,1.15,1.07,1.56,3.22,1.69,5.27-3.07,.27-4.91,.76-7.24-.44-1.06-.55-.85-1.39-2.36,1.64-.53,1.06-1.81,2.87-.77,4.73,.72,1.28,.66,2.3,2.21,1.8,1.62-.53,4.76-1,8.13-1.31-.17,2.71-.69,3.89-2.22,4.69-1.61,.85-3.39,.89-5.29,.46-2.36-.52-2.26-1.03-.82,2.11,2.37,5.15,8.58,7.19,12.74,2.72,2.57,2.21,6.06,2.77,7.96,1.49,2.67-1.8,3.81-5.25,4.21-7.45,.36-1.95,.17-2.27-1.08-1.08-2.05,1.95-4.8,1.84-7.55,.57-1.24-.57-1.74-2.13-1.9-3.86,2.64-.05,4.92,.06,6.06,.41Z"/></g><g><g><path class="b" d="M52.34,28.95c.62,.17,1.28,.26,1.74-.34,.15-.2,.43-.67,.55-.14,.08,.37,.04,.76,.14,1.12,.1,.35,.23,.65,.59,.77,.38,.13,.59,0,.74-.36,.14-.33,.11-.65,.17-1.03,.04-.29,.08-.75,.32-.92,.6-.41,1,.66,1.43,.88,.3,.15,.62,.31,.94,.37,.39,.08,.53,0,.75-.34,.15-.23,.44-.56,.51-.83,.08-.35-.37-.54-.64-.64-.62-.23-1.29-.41-1.9-.66l-.94-.82c-.39-.42,.81-.72,1.04-.74,.25-.03,.56,0,.75-.19,.15-.14,.24-.4,.36-.58,.2-.28,.32-.46,0-.72-.32-.26-.55-.17-.89-.1-.36,.07-.78,.07-1.14,0-.28-.05-.72-.11-.9-.36-.37-.54,.54-1.25,.99-1.37,.94-.24,.98-.81,.91-1.52-.02-.28-.15-.65-.33-.86-.18-.21-.53-.54-.79-.29-.24,.23,0,.63-.16,.91-.38,.68-.55,.52-.69,.08-.1-.34-.03-.74-.02-1.08,.02-.39-.12-.6-.42-.8-.3-.2-.57-.29-.82,0-.16,.17-.34,.6-.38,.83-.04,.3,.58,.57,.28,.8-.24,.19-.75-.15-.94-.28-.25-.17-.52-.47-.84-.33-.32,.13-.41,.63-.36,.92,.08,.49,.29,1.34,.71,1.68,.51,.42,.96,.22,1.24,.59,.17,.21,.17,.66,.05,.91-.05,.12-.23,.26-.33,.32-.18,.11-.42,.31-.65,.34-.37,.04-.69-.12-1.04,.06-.32,.16-.47,.43-.31,.76,.16,.33,.38,.52,.7,.63,.35,.12,.7,0,1.06,.02-.02,.34-.35,.71-.54,1-.38,.57-.68,1.29-1.47,1.25-.24-.01-.9-.23-.73,.29,.12,.38,.62,.25,.8,.46,0,0,.45,.27,.45,.3Z"/><path class="b" d="M49.07,22.28c.2-.07,.58-.02,.58-.63s.13-1.71-.05-1.95c-.18-.25-.54-.13-.13-.56,.4-.43,.72-.67,1.14-.52,.43,.16,.61,.47,.54,1.17-.08,.83-.19,1.67-.11,1.95,.09,.31,.7,.48,1.14,.49,.65,.02,.39,.81,.25,1.01-.27,.36-1.08,.18-1.01,.74,.04,.31-.02,.27,.18,.43,.2,.16,.43,.63,.18,.92-.25,.29-.65,.52-.58,.85,.07,.34,.22,1.01,.22,1.5,0,.34,.02,.74-.25,1.26-.24,.45-.04,1.1-.34,1.37-.29,.27-.45-.03-.67-.34-.22-.31-.73-1.67-.54-2.65,.04-.23,.02-.29-.25-.18-.49,.21-.59,.58-.76,.9-.18,.31-1.1,.99-1.79,.72-.7-.27-.9-.97-.81-1.28,.09-.31,.51-.74,1.19-.96,.91-.31,1.39-1.23,1.66-1.46,.27-.22,.49-.52,.52-.83,.04-.52,.13-.63-.18-.51-.31,.11-.63,.04-.92-.22-.29-.27-.58-.9-.09-1.14,.49-.25,.54,.04,.88-.07Z"/></g><g><path class="b" d="M63.87,22.68c.05-.4-.2-.87,.58-1.03,.78-.16,1.57-.31,2.44-.25,.87,.07,1.5-.13,1.86-.27,.18-.81-.04-2.08,.4-2.47,.45-.38,.78-.4,1.25-.18,.47,.22,.79,.67,.45,1.08-.34,.4-.31,.88-.2,1.3,.07,.25,.33,.25,.49,.02,.16-.22,.13-.76,.58-1.41,.45-.65,.81-.87,1.3-.67,.49,.2,.36,1.28,.16,1.48-.2,.2-.65,.54-.76,.81-.11,.27,.02,.38,.43,.43,.4,.04,.94-.22,.9,.36-.04,.58-.79,1.48-1.5,1.35-.72-.13-1.3-.38-1.41,.16-.11,.54-.15,1.62,1.3,3.28,1.77,2.02,3.39,2,2.83,2.83-.4,.59-.65,.63-.85,.9-.2,.27-.25,.42-1.03,.05-1.64-.79-2.5-2.57-2.98-4.06-1.03-3.21-1.26-3.25-1.95-3.36-.87-.14-2.69,.07-2.98,.4-.29,.34-.56,.18-.92,.09-.36-.09-.4-.63-.38-.81Z"/><path class="b" d="M70.19,24.95c-.61,.2-1.08,.2-1.82-.02-.74-.22-2.35-.13-2.98,.16-.63,.29-.56,.86-.43,1.3,.2,.67,1.23,.38,1.12,1.28-.11,.84-.16,.69-1.01,.85-.33,.06-1.19,.4-.88,1.01,.32,.61,.58,1.44,1.32,.9,.74-.54,2.2-1.05,2.96-.94,.76,.11,.96,.2,1.19-.18,.22-.38,1.08-1.59-.13-1.35-1.21,.25-1.44,.04-1.5-.49-.07-.54-.11-.9,.43-1.05,.87-.25,.52-.67,1.03-.67s1.03,.04,1.08-.2c.04-.25-.38-.58-.38-.58Z"/></g><g><path class="b" d="M81,20.19c.56-.56,.45-.65,.99-1.32,.54-.67,1.08-1.1,1.62-.81,.85,.47,.64,1.34,1.05,1.79,.45,.49,2.42,2.18,3.21,2.11,.78-.07,1.14-.09,1.41,.13,.27,.22,.22,.25-.11,.67-.34,.43-1.55,1.29-2.18,.83-1.01-.74-2.89-2.36-3.16-2.87-.27-.52-.47-.45-.9-.11-.43,.34-2.44,1.77-2.71,2.11-.27,.34-.74,.65-1.03,.56-.29-.09-.78,.25-1.3,.07-.52-.18-1.35-.76-.65-1.05,.7-.29,.72-.67,1.26-.78,.54-.11,1.08-.27,1.68-.65,.6-.38,.74-.58,.83-.67Z"/><path class="b" d="M80.15,21.67c.67-.37,1.41-.04,2.29,.36,.88,.4,.94,.13,1.35,.09,.4-.04,.78,.04,1.05,.16,.27,.11,.31-.43,.69-.34,.38,.09,.49,.54,.02,.83-.47,.29-.38,.74-.88,.9-.49,.16-.92,.09-1.19-.02-.27-.11-.52-.18-.96,.18-.45,.36-1.57,.4-1.79-.07-.22-.47-1.43-1.62-.58-2.09Z"/><path class="b" d="M77.73,26.63c-.05-.71,.51-1.5,1.23-1.43,.72,.07,1.91-.04,2.92-.18,1.01-.13,2.38,.04,2.96,.16,.58,.11,.96-.16,1.7-.16s2.35,.07,1.93,.63c-.43,.56-.56,.85-.99,1.05-.36,.17-2.22,.72-3.03,.45-.81-.27-4.11-.43-4.89,.16-.59,.44-.54,.63-1.26,.25-.72-.38-.56-.63-.58-.92Z"/><path class="b" d="M79.79,26.34c.36,.47,.9,.9,.45,1.41-.45,.51-1.05,1.44-.54,2.02,.52,.58,1.84,.65,2.29,.4,.45-.25,.25-.47,1.1-.38,.85,.09,1.66,.31,2.02,.47,.36,.16,1.05,.16,1.44-.31,.38-.47,.16-1.61-.31-2.02s-.47-1.41-.31-1.82c.16-.4-3-.29-2.78,.16,.22,.45,1.03,.87,1.32,1.32,.29,.45-.2,.76-.58,.67-.38-.09-.72,0-.94,.14-.22,.13-.67,.25-.9-.05-.22-.29-.45-.7,.63-1.39,1.08-.69-1.53-1.12-1.53-1.12l-1.34,.49Z"/></g><g><path class="b" d="M93.36,22.09c.07-.49,.69-.67,.99-.63,.38,.06,.78-.11,.99-.22,.2-.11,.31-.16,.27-.58-.04-.43-.23-1.34,0-1.82,.22-.47,.34-.51,.72-.31,.38,.2,.65,.36,.65,.9s-.25,1.41,.25,1.64c.49,.22,1.12,.38,1.23,.76,.18,.61-.74,1.77-1.19,2.31-.22,.26-.28,.38-.13,.72,.18,.4,.87,1.05,1.19,1.1,.32,.04,.43,.04,.4,.43-.03,.55-.53,.97-1.01,1.01-.58,.04-.99-.47-1.05,.04-.07,.52-.12,.94,.05,1.37,.22,.58,.22,1.14-.02,1.57-.25,.43-.36,.45-.83,.31-.45-.13-.88-.72-.65-1.39,.27-.79,.22-1.57,.11-1.79-.17-.35-.53,.08-.85,.31-.92,.67-2.06,.11-2.29-.43-.23-.54,.02-.63,.29-.83,.27-.2,2.94-2.42,3.27-2.67,.34-.25,.52-.83,.25-1.08-.27-.25-.63,.02-1.01,.2-.38,.18-.88,.74-1.39,.38-.52-.36-.25-1.11-.22-1.3Z"/><path class="b" d="M98.12,24.24c-.1-.41,.28-1.14,1.01-1.12,.87,.02,.99-.13,.99-.54s-.09-1.21-.27-1.84c-.18-.63-.13-1.26,.25-1.64,.38-.38,.7-.47,1.1-.16,.46,.36,.67,.61,.65,1.26-.02,.65-.56,.99-.58,1.68-.02,.7,.11,.94,.58,1.01,.47,.07,1.75-.22,1.57,.47-.18,.7-.38,1.23-1.01,1.32-.63,.09-.83,.14-1.01,.92-.18,.78-.2,1.55,0,1.95,.2,.4,.18,.47,.65,.52,.47,.05,1.5,.2,1.75,.2s.67-.25,.72,.29c.04,.54-.76,1.73-1.3,1.68-.54-.04-.81-.22-1.44-.49-.63-.27-2.69,.04-3.14,.25-.45,.2-1.55-.12-1.5-.87,.04-.72,.61-.74,1.05-.72,.51,.02,1.21-.11,1.5-.47,.29-.36,.44-1.3,.4-2.29-.05-1.14-.4-1.1-.94-.9-.54,.2-.88,.11-1.03-.52Z"/></g></g><g><path class="b" d="M113.84,19.01c.59-.21,.76-1.35,1.52-1.18,.76,.17,3.86,1.32,5.14-.17,.51-.59-.14-2.6-.42-3.02-.28-.42-.28-1.16,.62-2.06,.9-.9,1.24-1.3,2.06-.82,1.13,.66,2.57,1.13,2.74,1.75,.48,1.78-.71,1.64-.57,3.16,.09,.93,.45,1.13,.65,1.33,2.23-.25,5.36,.25,6.46,.31,1.16,.06,1.8-.45,1.89,.37,.07,.7-.25,2.37-1.72,3.02-.69,.31-1.16,.37-1.72,.25-.56-.11-1.61,.14-3.27-.14-1.73-.29-1.52,.17-1.38,1.1,.14,.93,.96,3.25,3.22,4.6,2.26,1.36,5.47,1.78,6.38,1.89,.9,.11,.71,.51,.45,.73-.25,.22-.99,1.02-1.38,2.79-.1,.47,.04,.47-.59,.85-1.66,.99-2,1.29-3.61,.71-3.36-1.21-5.87-6.55-6.63-9.2-.13-.46-.54-.56-.79,.17-.25,.73-1.52,3.72-2.82,5.16-1.3,1.44-3.78,4.15-5.95,3.7-1.56-.32-2.54-1.69-2.82-2.54-.28-.85-1.83-2.02-.79-2.2,1.64-.28,3.55,.11,6.35-2.23,2.87-2.4,3.02-4.36,2.93-4.99-.09-.62-.25-.59-1.21-.57-.96,.03-2.71-.06-4.04,.82-.4,.26-.25,.62-.96,.39-.71-.22-1.55-.59-1.38-1.61,.17-1.02,1.18-2.2,1.66-2.37Z"/><path class="b" d="M148.24,19.44c.25-.3,.13-1.02,1.06-1.48,1-.5,.8-1.06,1.78-.72,.54,.19,1.27,.42,2.07,.25,.8-.17,1.95-.34,1.4-1.35-.55-1.02-.89-1.1-.51-1.99,.38-.89,.63-1.48,1.53-1.69,.89-.21,1.4,.08,2.33,.55,1.01,.5,1.43,1.64,1.06,2.33-.25,.47-.42,1.52,.3,1.65,.72,.13,3.6,.38,4.11-.25,.51-.63,.76-.59,1.48-.47,.72,.13,1.44,.85,1.82,1.35,.48,.64,.21,1.31-.51,2.07-.72,.76-1.31,.93-1.73,2.88-.42,1.95-.8,5.67,.76,6.52,1.57,.85,3.72,.21,4.4-.17,.68-.38,.97-.21,.76,.34-.21,.55-.89,1.82-1.06,3.47-.09,.9-1.14,2.37-3.01,2.33-1.47-.03-1.46,.04-2.07-.21-3.38-1.4-4.91-6.14-3.6-11,.44-1.62,.68-2.58,0-2.67-.68-.08-2.2-.42-2.45,.68-.25,1.1-1.19,4.23-1.48,4.7-.3,.46-.33,.87,.04,1.48,.34,.55,.99,1.3,1.65,1.82,1.4,1.1,.79,2.62,.17,3.13-.72,.59-1.57,.34-1.95,.04-.38-.3-1.23-.17-1.48-.68-.25-.51-.68-1.27-1.27-.59-.59,.68-1.52,1.57-1.86,1.95-.34,.38-.89,.72-1.82,.89-.93,.17-2.07-.29-2.96-1.02-1.57-1.27-2.07-3.39-1.23-3.81,.85-.42,1.39,.25,2.5-.42,1.1-.68,1.65-.85,.85-1.27-.8-.42-1.69-1.06-1.65-2.45,.04-1.4-.17-1.48,.93-2.07,1.1-.59,1.74-.59,2.41-.04,.68,.55,1.19,.76,1.48,1.06,.3,.3,.42,.21,.89-.34,.46-.55,1.36-2.46,.55-2.58-.8-.13-.97-.55-1.61,0-.63,.55-2.54,1.19-3.26,.51-.72-.68-1.15-2.3-.8-2.71Z"/><path class="b" d="M198.69,18.13c-.29-.64-1.36-.81-2.37-.55-1.14,.3-1.42-.07-2.16-.25-.51-.13-1.19,.34-2.29-.08-1.04-.4-1.06-.34-.97-.97,.08-.63,.38-.59,.51-1.35,.13-.76-1.31-1.78-1.95-2.07-.63-.3-1.01,.09-1.39-.04-.38-.13-.68-.17-1.27,.13-.59,.3-1.4,1.23-1.23,2.03,.17,.8,1.19,.76,.76,1.74-.42,.97-2.03,.68-3.01,.97-.42,.13-1.1,.42-1.82,.34-.72-.09-1.26-.57-2.07,.55-.68,.93-.04,1.4,.17,2.62,.21,1.23,.72,4.87,.38,5.84-.34,.97,.42,2.75-.3,4.99-.31,.97-.42,1.27,.42,2.46,.52,.73,2.07,.05,2.88-.34,.8-.38,1.86-.47,3.17-.42,1.31,.04,5.08,.17,5.63-.08,.25-.11,2.71-.17,3.18,.38,.46,.55,1.48,.72,2.33,.59,1.22-.18,1.57-2.58,1.27-4.99-.26-2.12,.13-3.47-.29-6.14-.15-.93,.06-1.8,.47-2.5,.46-.8,.38-1.92-.04-2.84Zm-4.4,11.72c-.47,.47-1.31,.68-2.58,.55-1.27-.13-4.23,.04-4.99,.04s-1.95,.34-2.54,.08c-.59-.25-.89-1.27-.89-1.61,0-.93,.46-1.4,1.1-1.86,.63-.46,1.89-.54,2.67-.46,.93,.08,4.74,.03,5.84-.13,.29-.04,.61-.47,1.19-.13,.42,.25,.17,.8,.46,1.48,.3,.68,.08,1.69-.25,2.03Zm.21-6.9c-.63,.13-2.62-.13-3.51-.04-.89,.08-4.11,.42-6.22,.34-.56-.02-.97-.13-1.23-.51-.25-.38-.3-.89-.13-1.02,.54-.41,.25-.89,1.06-1.06,.68-.14,.99-.09,1.95,.21,.68,.21,1.66-.24,2.92-.08,1.35,.17,1.9,.13,2.29-.04,.38-.17,.59-.13,.93,.04,.34,.17,.89-.38,1.31-.25,.42,.13,.68-.09,.68,.68s.59,1.61-.04,1.74Z"/><g><path class="b" d="M211.98,18.84c.1-.23,.24-1.17,1.26-.99,1.02,.18,2.46-.3,3.87-.27,1.41,.03,3.75-.12,3.69-.99-.06-.87-.33-1.47-.39-2.16-.06-.69,.12-1.44,.63-1.8,.51-.36,.93-.93,1.41-.42,.48,.51,2.13,1.71,2.07,2.52-.06,.81-.21,2.52,.54,2.55,1.02,.04,5.43,.12,6.81-.3,.87-.27,1.14-.39,1.14,.39s-.3,2.04-.63,2.58c-.33,.54-.45,1.92-2.49,1.35-2.04-.57-4.53-.09-6.66-.48-.79-.15-1.32,.24-1.71,.72-.39,.48-1.2,1.71-1.62,2.25v5.28c0,.51,.18,.69,.6,.69s1.56-.45,2.34-.48c.78-.03,1.56,0,2.04,1.23,.48,1.23-.75,2.1-1.47,2.37-.72,.27-3.63,1.52-4.5,1.47-1.98-.12-2.4,.72-3.15,.42-.75-.3-1.77-.9-.96-2.1,.61-.9,.48-1.35,1.35-1.74,.87-.39,1.29-.57,1.23-1.5-.06-.93-.14-1.62-.36-1.74-.27-.15-.9,.3-2.25,1.77-1.12,1.22-3.72,1.05-4.29-.06-.42-.81-1.55-.75-.78-1.35,1.47-1.14,3.03-1.35,5.34-3.42,1.11-1,1.83-1.44,2.61-2.85,.24-.43,.45-.99-.36-.9-1.01,.11-2.94,.39-3.48,.72-.54,.33-.51,.45-1.11,.12-.6-.33-1.26-.99-1.14-1.68,.12-.69,.3-.93,.42-1.2Z"/><path class="b" d="M225.33,22.56c.97-.61,1.65-1.05,1.65-1.92s1.86,.42,2.58,1.35c.72,.93,1.35,2.01,.9,2.28-.45,.27-.51,.93-1.26,1.11-.75,.18-1.41,.03-1.92,.33-.51,.3-.92,.47-.3,1.02,1.02,.9,2.31,.93,4.11,2.07,.54,.34,.93,.21,1.32,0,.39-.21,.6,.03,1.26-.15,.66-.18,.72,.15,1.41-.03,.69-.18,1.81-.04,1.26,.75-.48,.69-2.28,3.51-3.48,4.2-.46,.26-2.27,.46-3.36,0-2.07-.87-5.09-5.1-5.79-6-.66-.84-2.22-2.25-2.58-2.73-.36-.48-.78-1.14-.12-1.68,.66-.54,1.29-.21,1.71-.03,.42,.18,.78,.81,1.41,.24,.63-.57,.96-.66,1.2-.81Z"/></g></g></svg>